<?xml version="1.0" encoding="utf-8"?>
<!-- Generator: Adobe Illustrator 19.1.0, SVG Export Plug-In . SVG Version: 6.00 Build 0)  -->
<svg version="1.1" id="Layer_1" xmlns="http://www.w3.org/2000/svg" xmlns:xlink="http://www.w3.org/1999/xlink" x="0px" y="0px"
	 viewBox="0 0 907.5 467.9" style="enable-background:new 0 0 907.5 467.9;" xml:space="preserve">
<style type="text/css">
	.st0{fill:#F9F9FA;}
	.st1{fill:#282829;}
</style>
<g>
	<rect x="1.6" y="3.2" class="st0" width="903.1" height="462"/>
	<path class="st1" d="M905,465.5l-56.7,0.5l-56.4,0.4L679,467.1l-112.9,0.4l-112.9,0.3l-112.9,0.1l-56.4,0l-56.4-0.1L1.6,466.6
		l-1.4,0l0-1.4l0.3-57.7l0.2-57.7l0-115.5L0.5,118.7L0,3.2l0-1.6l1.6,0L114.5,1l112.9-0.4l225.8-0.5L566.1,0l112.9,0l112.9,0.2
		l112.9,0.3l2.7,0l0,2.7l-0.4,115.5l-0.5,115.5l-0.6,115.5L905,465.5z M904.4,464.9l-0.9-115.2l-0.6-115.5l-0.5-115.5L902,3.2
		l2.7,2.7L791.8,6.2L678.9,6.4l-112.9,0L453.2,6.2L227.4,5.8L114.5,5.4L1.6,4.8l1.6-1.6L2.8,118.7L2.6,234.2l0,115.5l0.2,57.7
		l0.3,57.7l-1.4-1.4l225.8-1.1l56.4-0.1l56.4,0l112.9,0.1l112.9,0.3l112.9,0.4l112.9,0.7l56.4,0.4L904.4,464.9z"/>
</g>
</svg>
