<?xml version="1.0" encoding="utf-8"?>
<!-- Generator: Adobe Illustrator 19.1.0, SVG Export Plug-In . SVG Version: 6.00 Build 0)  -->
<svg version="1.1" id="Layer_1" xmlns="http://www.w3.org/2000/svg" xmlns:xlink="http://www.w3.org/1999/xlink" x="0px" y="0px"
	 viewBox="0 0 43.4 43.4" style="enable-background:new 0 0 43.4 43.4;" xml:space="preserve">
<style type="text/css">
	.st0{fill:#282829;}
	.st1{fill:#FFFFFF;}
</style>
<g>
	<g>
		<circle class="st0" cx="21.7" cy="21.7" r="21.7"/>
	</g>
	<g>
		<path class="st1" d="M8.9,29.2c0-5.4,0-10.7,0-16.1c0,0,0-0.1,0-0.1c0,0,0.1,0,0.1,0c0.1,0,0.1,0,0.2,0c2.4,0,4.7,0,7.1,0
			c0.4,0,0.9,0,1.3,0.1c0.7,0.1,1.3,0.2,1.9,0.5c1.1,0.6,1.8,1.5,2.1,2.8c0.1,0.7,0.1,1.3,0,2c-0.2,0.8-0.6,1.4-1.3,1.9
			c-0.1,0.1-0.3,0.2-0.4,0.3c0,0-0.1,0.1-0.1,0.1c0.1,0,0.1,0.1,0.2,0.1c1.1,0.5,1.8,1.3,2.1,2.5c0.2,1,0.2,2-0.2,3
			c-0.4,1.1-1.1,1.9-2.1,2.4c-0.4,0.2-0.9,0.4-1.3,0.5c-0.7,0.1-1.5,0.2-2.2,0.2c-2.4,0-4.7,0-7.1,0C9.1,29.2,9.1,29.2,8.9,29.2z
			 M12.7,26.4c0.1,0,0.1,0,0.2,0c1.1,0,2.2,0,3.3,0c0.4,0,0.7,0,1.1-0.1c0.8-0.2,1.3-0.7,1.5-1.5c0.1-0.3,0.1-0.7,0.1-1
			c-0.1-0.7-0.4-1.2-1-1.4c-0.1,0-0.2-0.1-0.3-0.1c-0.4-0.1-0.8-0.2-1.1-0.2c-1,0-2.1,0-3.1,0c-0.1,0-0.3,0-0.4,0c0,0-0.1,0-0.1,0
			C12.7,22.4,12.7,26.2,12.7,26.4z M12.7,19.4c0.1,0,0.2,0,0.2,0c1,0,2,0,3.1,0c0.3,0,0.6,0,0.9-0.1c0.3-0.1,0.6-0.1,0.8-0.3
			c0.3-0.2,0.5-0.4,0.6-0.8c0.1-0.4,0.1-0.9,0-1.3c-0.1-0.5-0.4-0.8-0.9-1c-0.3-0.1-0.6-0.1-0.9-0.2c-0.3,0-0.7-0.1-1,0
			c-0.5,0-1,0-1.5,0c-0.4,0-0.8,0-1.2,0c-0.1,0-0.1,0-0.2,0C12.7,17,12.7,18.2,12.7,19.4C12.7,19.3,12.7,19.4,12.7,19.4z"/>
		<path class="st1" d="M35,23.8c-1.4,0-2.8,0-4.2,0c-1.4,0-2.8,0-4.2,0c0,0.1,0,0.2,0,0.3c0,0.2,0.1,0.5,0.2,0.7
			c0.3,0.8,0.8,1.4,1.6,1.6c0.5,0.1,0.9,0.2,1.4,0.1c0.2,0,0.4-0.1,0.6-0.1c0.5-0.2,0.9-0.5,1.2-0.9c0.1-0.1,0.1-0.2,0.2-0.3
			c1,0,2,0,3,0c0,0,0.1,0,0.1,0c0,0.1,0,0.1,0,0.2c-0.1,0.4-0.2,0.7-0.4,1c-0.7,1.1-1.7,1.9-3,2.3c-0.5,0.1-1,0.2-1.5,0.3
			c-0.4,0-0.8,0-1.2,0c-0.9-0.1-1.8-0.4-2.5-0.8c-0.4-0.2-0.7-0.5-1.1-0.8c-0.6-0.5-0.9-1.2-1.2-1.9c-0.2-0.6-0.3-1.1-0.3-1.7
			c0-0.4,0-0.8,0-1.1c0-0.8,0.1-1.7,0.4-2.4c0.6-1.7,1.8-2.8,3.6-3.3c0.6-0.2,1.2-0.2,1.7-0.2c0.7,0,1.4,0.1,2,0.3
			c1.4,0.4,2.5,1.3,3.1,2.7c0.3,0.6,0.5,1.2,0.5,1.9C35,22.3,35,23,35,23.8C35,23.7,35,23.7,35,23.8z M26.6,21.7c0.2,0,4.2,0,5.1,0
			c0,0,0.1,0,0.1,0c0-0.2,0-0.3,0-0.4c-0.2-1-0.7-1.6-1.7-1.9c-0.5-0.2-1.1-0.2-1.7,0c-0.5,0.1-1,0.4-1.3,0.9
			c-0.2,0.3-0.4,0.7-0.5,1.1C26.6,21.5,26.6,21.6,26.6,21.7z"/>
		<path class="st1" d="M26,13.7c0,0,0.1,0,0.1,0c1.1,0,6.1,0,6.4,0c0,0,0,0,0,0.1c0,0.5,0,1,0,1.5c0,0,0,0,0,0.1c0,0-0.1,0-0.1,0
			c0,0-0.1,0-0.1,0c-2,0-4,0-6,0c-0.1,0-0.2,0-0.2,0c0,0,0,0,0,0c0,0,0,0,0,0c0-0.5,0-0.9,0-1.4C25.9,13.8,25.9,13.8,26,13.7
			C25.9,13.7,25.9,13.7,26,13.7z"/>
	</g>
</g>
</svg>
