<?xml version="1.0" encoding="utf-8"?>
<!-- Generator: Adobe Illustrator 19.1.0, SVG Export Plug-In . SVG Version: 6.00 Build 0)  -->
<svg version="1.1" id="Layer_1" xmlns="http://www.w3.org/2000/svg" xmlns:xlink="http://www.w3.org/1999/xlink" x="0px" y="0px"
	 viewBox="0 0 43.4 43.4" style="enable-background:new 0 0 43.4 43.4;" xml:space="preserve">
<style type="text/css">
	.st0{fill:#282829;}
	.st1{fill:#FFFFFF;}
</style>
<g>
	<g>
		<circle class="st0" cx="21.7" cy="21.7" r="21.7"/>
	</g>
</g>
<g>
	<path class="st1" d="M19,20.3c0.7,0.1,1.4,0.2,2,0.2c1.2,0.1,2.4,0.1,3.6-0.1c0.6-0.1,0.9-0.4,1-1c0.1-0.3,0.1-0.7,0.3-1
		c0.1-0.1,0.3-0.3,0.4-0.3c0.2,0,0.4,0.2,0.5,0.4c0.1,0.3,0.1,0.6,0.1,0.9c-0.1,1.3-0.1,2.6,0.1,3.9c0.1,0.5-0.1,0.8-0.4,0.9
		c-0.2,0.1-0.6-0.2-0.8-0.6c-0.1-0.2-0.1-0.4-0.2-0.6c-0.2-0.7-0.7-1-1.3-1.1c-0.8-0.1-1.5-0.1-2.3-0.1c-0.8,0-1.7,0.1-2.5,0.1
		c-0.3,0-0.5,0.1-0.5,0.4c0,0.4-0.1,0.8-0.1,1.2c0,1.3,0,2.6,0,4c0,1.6,0.6,1.9,1.8,2c1.9,0.2,3.8,0.1,5.7-0.4
		c0.4-0.1,0.9-0.4,1.3-0.6c0.4-0.3,0.6-0.7,0.6-1.2c0.1-0.4,0.1-0.9,0.3-1.2c0.1-0.3,0.3-0.3,0.6-0.2c0.5,0.2,0.7,0.6,0.6,1.2
		c-0.1,0.4-0.2,0.8-0.3,1.2c-0.2,0.6-0.2,1.1-0.2,1.7c0.1,1.1-0.3,1.3-1.3,1.1C27.5,31,27,31,26.5,31c-3.6,0-7.2,0-10.7,0.1
		c-0.4,0-0.8,0.1-1.2,0.1c-0.1,0-0.3,0-0.4-0.1c-0.2-0.1-0.4-0.2-0.4-0.3c-0.1-0.2,0-0.5,0.2-0.7c0.3-0.1,0.5-0.2,0.8-0.3
		c1.1-0.1,1.4-0.3,1.6-1.4c0.1-0.6,0.2-1.2,0.2-1.9c0-1.5-0.1-3-0.1-4.5c0-1.7,0.1-3.4,0.1-5.1c0-0.8-0.1-1.6-0.2-2.4
		c-0.1-0.7-0.5-1.2-1.2-1.2c-0.2,0-0.4-0.1-0.6-0.2c-0.3-0.1-0.4-0.4-0.4-0.7c0.1-0.3,0.3-0.4,0.5-0.4c0.2,0,0.4,0,0.5,0
		c3.4,0,6.9,0,10.3,0c0.8,0,1.6-0.1,2.4-0.2c0.1,0,0.3,0,0.4,0c0.5,0,0.7,0.3,0.6,0.7c0,0.2-0.1,0.5-0.1,0.7c0,0.7,0,1.3,0,2
		c0,0.2,0,0.4-0.1,0.6c-0.1,0.2-0.2,0.4-0.5,0.3c-0.2,0-0.4-0.1-0.5-0.4c-0.1-0.3-0.1-0.6-0.2-0.9c-0.1-0.3-0.2-0.6-0.5-0.7
		c-0.6-0.2-1.2-0.4-1.8-0.5c-1.3-0.1-2.5-0.2-3.8-0.2c-0.6,0-1.2,0.1-1.7,0.3c-0.5,0.1-0.8,0.4-0.8,0.9c0,1.6,0,3.3,0,4.9
		C18.9,19.9,19,20.1,19,20.3z"/>
</g>
</svg>
