<?xml version="1.0" encoding="utf-8"?>
<!-- Generator: Adobe Illustrator 19.1.0, SVG Export Plug-In . SVG Version: 6.00 Build 0)  -->
<svg version="1.1" id="Layer_1" xmlns="http://www.w3.org/2000/svg" xmlns:xlink="http://www.w3.org/1999/xlink" x="0px" y="0px"
	 viewBox="0 0 43.4 43.4" style="enable-background:new 0 0 43.4 43.4;" xml:space="preserve">
<style type="text/css">
	.st0{fill:#282829;}
	.st1{fill:#FFFFFF;}
</style>
<g>
	<circle class="st0" cx="21.7" cy="21.7" r="21.7"/>
	<g>
		<path class="st1" d="M19.3,22.9c-0.1,0-0.1,0-0.1,0c-0.9,0-1.9,0-2.8,0c-0.1,0-0.1,0-0.1-0.1c0-1.3,0-2.7,0-4c0-0.1,0-0.1,0.1-0.1
			c0.9,0,1.9,0,2.8,0c0,0,0.1,0,0.1,0c0,0,0-0.1,0-0.1c0-1.1,0-2.3,0-3.4c0-1.2,0.3-2.3,1-3.2c0.8-1,1.8-1.6,3-1.9
			c0.8-0.2,1.7-0.2,2.5-0.2c0.7,0,1.5,0.1,2.2,0.1c0.1,0,0.1,0,0.1,0.1c0,1.2-0.1,2.5-0.1,3.7c0,0.1,0,0.1-0.1,0.1
			c-0.9,0-1.7,0-2.6,0c-0.2,0-0.4,0-0.7,0.1c-0.6,0.1-0.9,0.5-1,1.1c0,0.2,0,0.4,0,0.6c0,1,0,1.9,0,2.9c0,0.1,0,0.1,0.1,0.1
			c1.4,0,2.8,0,4.3,0c0.1,0,0.1,0,0.1,0.1c-0.1,1.3-0.1,2.7-0.2,4c0,0.1,0,0.1-0.1,0.1c-1.4,0-2.7,0-4.1,0c-0.1,0-0.1,0-0.1,0.1
			c0,3.8,0,7.5,0,11.3c0,0.1,0,0.2-0.1,0.1c-1.4,0-2.8,0-4.2,0c-0.1,0-0.1,0-0.1-0.1c0-3.8,0-7.5,0-11.3
			C19.3,23.1,19.3,23,19.3,22.9z"/>
	</g>
</g>
</svg>
