<?xml version="1.0" encoding="utf-8"?>
<!-- Generator: Adobe Illustrator 19.1.0, SVG Export Plug-In . SVG Version: 6.00 Build 0)  -->
<svg version="1.1" id="Layer_1" xmlns="http://www.w3.org/2000/svg" xmlns:xlink="http://www.w3.org/1999/xlink" x="0px" y="0px"
	 viewBox="0 0 43.4 43.4" style="enable-background:new 0 0 43.4 43.4;" xml:space="preserve">
<style type="text/css">
	.st0{fill:#282829;}
	.st1{fill:#FFFFFF;}
</style>
<g>
	<g>
		<g>
			<g>
				<circle class="st0" cx="21.7" cy="21.7" r="21.7"/>
			</g>
		</g>
	</g>
	<g>
		<path class="st1" d="M22.4,18.5c0.1-0.1,0.1-0.1,0.2-0.2c0.4-0.5,0.9-1,1.4-1.3c0.4-0.2,0.9-0.4,1.3-0.6c0.7-0.2,1.4-0.2,2.1-0.1
			c1.3,0.2,2.4,0.8,3.2,1.9c0.4,0.6,0.6,1.2,0.8,1.8c0.1,0.7,0.2,1.4,0.2,2.1c0,2.7,0,5.3,0,8c0,0.2-0.1,0.2-0.2,0.2
			c-1.3,0-2.6,0-3.8,0c-0.2,0-0.2,0-0.2-0.2c0-2.7,0-5.4,0-8c0-0.8-0.3-1.5-1-2c-0.5-0.3-1-0.4-1.6-0.3c-0.8,0.2-1.3,0.7-1.7,1.4
			c-0.1,0.2-0.2,0.5-0.2,0.8c0,0.9,0,1.8,0,2.7c0,1.8,0,3.6,0,5.3c0,0.1,0,0.2,0,0.3c-0.2,0-0.3,0-0.5,0c-1.2,0-2.4,0-3.5,0
			c-0.2,0-0.2-0.1-0.2-0.2c0-3.1,0-6.1,0-9.2c0-1.2,0-2.4-0.1-3.7c0-0.2,0-0.3,0-0.5c0-0.2,0-0.2,0.2-0.2c0.8,0,1.7,0,2.5,0
			c0.3,0,0.5,0,0.8,0c0.2,0,0.2,0.1,0.2,0.2C22.3,17.3,22.4,17.9,22.4,18.5z"/>
		<path class="st1" d="M16.1,30.3c-1.4,0-2.8,0-4.3,0c0-0.1,0-0.2,0-0.3c0-4.4,0-8.8,0-13.2c0-0.2,0.1-0.3,0.3-0.3
			c1.3,0,2.5,0,3.8,0c0.2,0,0.2,0.1,0.2,0.2c0,4.3,0,8.6,0,12.9C16.1,29.9,16.1,30.1,16.1,30.3z"/>
		<path class="st1" d="M13.8,10.6c1,0.1,1.8,0.4,2.2,1.3c0.2,0.4,0.2,0.9,0.1,1.3c-0.1,0.7-0.5,1.1-1.1,1.4c-1.1,0.5-2.4,0.3-3-0.7
			c-0.3-0.5-0.4-1-0.3-1.6c0.1-0.8,0.6-1.3,1.3-1.6C13.3,10.6,13.6,10.6,13.8,10.6z"/>
	</g>
</g>
</svg>
