<?xml version="1.0" encoding="utf-8"?>
<!-- Generator: Adobe Illustrator 19.1.0, SVG Export Plug-In . SVG Version: 6.00 Build 0)  -->
<svg version="1.1" id="Layer_1" xmlns="http://www.w3.org/2000/svg" xmlns:xlink="http://www.w3.org/1999/xlink" x="0px" y="0px"
	 viewBox="0 0 43.4 43.4" style="enable-background:new 0 0 43.4 43.4;" xml:space="preserve">
<style type="text/css">
	.st0{fill:#282829;}
	.st1{fill:#FFFFFF;}
</style>
<g>
	<circle class="st0" cx="21.7" cy="21.7" r="21.7"/>
	<g>
		<path class="st1" d="M11.6,19.1c2,0,3.9,0,5.9,0c-0.5,0.8-0.9,1.7-0.9,2.6c0,1,0.1,1.9,0.5,2.7c0.4,0.8,1,1.5,1.8,2
			c1.9,1.2,4.4,1.1,6.3-0.5c0.9-0.9,1.5-1.9,1.6-3.2c0.1-1.3-0.2-2.4-0.9-3.5c0.5-0.2,1-0.1,1.5-0.1c0.5,0,1,0,1.5,0
			c0.5,0,1,0,1.4,0c0.5,0,1,0,1.5,0c0,0.2,0,0.4,0,0.6c0,2.9,0,5.8,0,8.8c0,1.9-1.6,3.6-3.4,3.8c-0.5,0.1-0.9,0.1-1.4,0.1
			c-3.7,0-7.5,0-11.2,0c-1,0-1.9-0.2-2.7-0.8c-1-0.8-1.6-1.8-1.6-3.1c0-2.9,0-5.9,0-8.8C11.5,19.5,11.6,19.3,11.6,19.1z"/>
		<path class="st1" d="M31.8,18.6c-0.2,0-0.4,0-0.6,0c-1.8,0-3.6,0-5.3,0c-0.4,0-0.6-0.1-0.9-0.3c-0.9-0.8-2-1.2-3.3-1.2
			c-1.3,0-2.4,0.4-3.4,1.2c-0.3,0.3-0.6,0.3-0.9,0.3c-1.8,0-3.5,0-5.3,0c-0.2,0-0.4,0-0.6,0c0-0.2-0.1-0.3-0.1-0.4
			c0-0.8,0-1.6,0-2.5c0-1.2,0.5-2.2,1.5-2.9c0.1,0,0.1-0.1,0.2-0.1c0.1,0.5,0,0.9,0.1,1.4c0,0.5,0,0.9,0,1.4c0,0.5,0,0.9,0,1.4
			c0.2,0,0.5,0,0.7,0c0-1.6,0-3.1,0-4.6c0.2-0.1,0.4-0.1,0.7-0.2c0,1.6,0,3.2,0,4.8c0.2,0,0.5,0,0.7,0c0-1.6,0-3.2,0-4.8
			c0.5-0.3,0.7-0.2,0.7,0.2c0,0.2,0,0.3,0,0.5c0,1.1,0,2.3,0,3.4c0,0.2,0,0.4,0,0.7c0.2,0,0.4,0,0.7,0c0-1.6,0-3.2,0-4.9
			c0.2,0,0.4-0.1,0.6-0.1c3.5,0,7,0,10.4,0c2,0,3.6,1.4,4,3.3c0,0.2,0.1,0.4,0.1,0.6c0,0.8,0,1.6,0,2.4
			C31.9,18.2,31.9,18.3,31.8,18.6z M26.8,13.6c-0.1,0.3-0.2,0.5-0.2,0.7c0,0.7,0,1.3,0,2c0,0.5,0.2,0.7,0.7,0.7c0.6,0,1.3,0,1.9,0
			c0.6,0,0.8-0.2,0.8-0.8c0-0.6,0-1.2,0-1.8c0-0.1,0-0.3-0.1-0.4c-0.1-0.2-0.2-0.4-0.4-0.4C28.6,13.6,27.7,13.6,26.8,13.6z"/>
		<path class="st1" d="M21.7,26.2c-2,0.1-4.1-1.5-4.1-4c0-2.3,1.8-4,4.1-4c2.2,0,4,1.7,4.1,4C25.8,24.6,23.7,26.3,21.7,26.2z
			 M24.6,22.2c0-1.6-1.3-2.9-2.9-2.9c-1.2,0-2.9,1-2.9,2.9c0,1.8,1.3,2.9,2.9,2.9C23.5,25.1,24.7,23.5,24.6,22.2z"/>
	</g>
</g>
</svg>
