<?xml version="1.0" encoding="utf-8"?>
<!-- Generator: Adobe Illustrator 19.1.0, SVG Export Plug-In . SVG Version: 6.00 Build 0)  -->
<svg version="1.1" id="Layer_1" xmlns="http://www.w3.org/2000/svg" xmlns:xlink="http://www.w3.org/1999/xlink" x="0px" y="0px"
	 viewBox="0 0 43.4 43.4" style="enable-background:new 0 0 43.4 43.4;" xml:space="preserve">
<style type="text/css">
	.st0{fill:#282829;}
	.st1{fill:#FFFFFF;}
</style>
<g>
	<circle class="st0" cx="21.7" cy="21.7" r="21.7"/>
	<g>
		<path class="st1" d="M11.6,14.7c6.9,0,13.7,0,20.6,0c-0.1,0.1-0.2,0.2-0.3,0.2c-3.3,2.6-6.6,5.1-9.9,7.7c-0.2,0.2-0.3,0.2-0.6,0
			c-3.2-2.6-6.5-5.1-9.7-7.7c-0.1,0-0.1-0.1-0.2-0.1C11.6,14.8,11.6,14.8,11.6,14.7z"/>
		<path class="st1" d="M19.9,22.6c0.5,0.4,1,0.8,1.4,1.1c0.3,0.2,0.6,0.3,0.9,0c0.4-0.3,0.8-0.7,1.3-1c0.1-0.1,0.3-0.1,0.4,0
			c3.1,2.2,6.1,4.4,9.1,6.6c0,0,0,0.1,0,0.1c-7.3-0.1-14.6-0.2-21.8-0.3c0,0,0-0.1,0-0.1C14,26.9,16.9,24.7,19.9,22.6z"/>
		<path class="st1" d="M33.5,14.9c0,4.6,0,9.1,0,13.6c-3.1-2.2-6.1-4.4-9.1-6.6C27.4,19.6,30.4,17.3,33.5,14.9z"/>
		<path class="st1" d="M10.3,28.4c0-4.5,0-8.9,0-13.4c3,2.3,5.8,4.6,8.8,7C16.2,24.1,13.3,26.3,10.3,28.4z"/>
	</g>
</g>
</svg>
